<mxfile host="Electron" modified="2023-07-31T20:38:11.407Z" agent="Mozilla/5.0 (Windows NT 10.0; Win64; x64) AppleWebKit/537.36 (KHTML, like Gecko) draw.io/21.6.5 Chrome/114.0.5735.243 Electron/25.3.1 Safari/537.36" etag="ucQA4RCcqq6JP2049Zko" version="21.6.5" type="device" pages="9">
  <diagram name="RTL" id="B0yNDXRq8wvSZkkPDZ4h">
    <mxGraphModel dx="968" dy="2349" grid="1" gridSize="10" guides="1" tooltips="1" connect="1" arrows="1" fold="1" page="1" pageScale="1" pageWidth="827" pageHeight="1169" math="0" shadow="0">
      <root>
        <mxCell id="0" />
        <mxCell id="1" parent="0" />
        <mxCell id="Z4VkokxyRcRMqYuDKTM2-3" value="" style="rounded=1;whiteSpace=wrap;html=1;arcSize=2;" parent="1" vertex="1">
          <mxGeometry x="60" y="-4" width="250" height="220" as="geometry" />
        </mxCell>
        <mxCell id="Z4VkokxyRcRMqYuDKTM2-2" value="" style="rounded=1;whiteSpace=wrap;html=1;arcSize=2;" parent="1" vertex="1">
          <mxGeometry x="74" y="18" width="246" height="220" as="geometry" />
        </mxCell>
        <mxCell id="Z4VkokxyRcRMqYuDKTM2-1" value="" style="rounded=1;whiteSpace=wrap;html=1;arcSize=2;" parent="1" vertex="1">
          <mxGeometry x="87" y="40" width="243" height="220" as="geometry" />
        </mxCell>
        <mxCell id="qXFSU8tJZclAv1oWG27S-12" style="edgeStyle=orthogonalEdgeStyle;rounded=0;orthogonalLoop=1;jettySize=auto;html=1;exitX=1;exitY=0.5;exitDx=0;exitDy=0;entryX=0;entryY=0.75;entryDx=0;entryDy=0;" parent="1" source="qXFSU8tJZclAv1oWG27S-3" target="PfZy2kw3USagzh-RdwVe-1" edge="1">
          <mxGeometry relative="1" as="geometry">
            <mxPoint x="360" y="165" as="targetPoint" />
          </mxGeometry>
        </mxCell>
        <mxCell id="qXFSU8tJZclAv1oWG27S-3" value="RTL&amp;nbsp; generation" style="rounded=1;whiteSpace=wrap;html=1;strokeWidth=2;" parent="1" vertex="1">
          <mxGeometry x="240" y="190" width="80" height="60" as="geometry" />
        </mxCell>
        <mxCell id="qXFSU8tJZclAv1oWG27S-5" style="edgeStyle=orthogonalEdgeStyle;rounded=0;orthogonalLoop=1;jettySize=auto;html=1;exitX=1;exitY=0.5;exitDx=0;exitDy=0;entryX=0;entryY=0.5;entryDx=0;entryDy=0;" parent="1" source="qXFSU8tJZclAv1oWG27S-4" target="qXFSU8tJZclAv1oWG27S-3" edge="1">
          <mxGeometry relative="1" as="geometry" />
        </mxCell>
        <mxCell id="qXFSU8tJZclAv1oWG27S-4" value="RTL generators and template sources" style="rounded=0;whiteSpace=wrap;html=1;" parent="1" vertex="1">
          <mxGeometry x="95" y="190" width="115" height="60" as="geometry" />
        </mxCell>
        <mxCell id="qXFSU8tJZclAv1oWG27S-11" style="edgeStyle=orthogonalEdgeStyle;rounded=0;orthogonalLoop=1;jettySize=auto;html=1;exitX=1;exitY=0.5;exitDx=0;exitDy=0;entryX=0;entryY=0.5;entryDx=0;entryDy=0;" parent="1" source="qXFSU8tJZclAv1oWG27S-6" target="PfZy2kw3USagzh-RdwVe-1" edge="1">
          <mxGeometry relative="1" as="geometry">
            <mxPoint x="360" y="150" as="targetPoint" />
          </mxGeometry>
        </mxCell>
        <mxCell id="qXFSU8tJZclAv1oWG27S-6" value="RTL sources" style="rounded=0;whiteSpace=wrap;html=1;" parent="1" vertex="1">
          <mxGeometry x="95" y="120" width="115" height="60" as="geometry" />
        </mxCell>
        <mxCell id="qXFSU8tJZclAv1oWG27S-10" style="edgeStyle=orthogonalEdgeStyle;rounded=0;orthogonalLoop=1;jettySize=auto;html=1;exitX=1;exitY=0.5;exitDx=0;exitDy=0;entryX=0;entryY=0.25;entryDx=0;entryDy=0;" parent="1" source="qXFSU8tJZclAv1oWG27S-7" target="PfZy2kw3USagzh-RdwVe-1" edge="1">
          <mxGeometry relative="1" as="geometry">
            <mxPoint x="360" y="135" as="targetPoint" />
          </mxGeometry>
        </mxCell>
        <mxCell id="qXFSU8tJZclAv1oWG27S-7" value="Configuration&lt;br&gt;Defines&lt;br&gt;Libraries" style="rounded=0;whiteSpace=wrap;html=1;" parent="1" vertex="1">
          <mxGeometry x="95" y="50" width="115" height="60" as="geometry" />
        </mxCell>
        <mxCell id="Z4VkokxyRcRMqYuDKTM2-4" value="Module A" style="text;strokeColor=none;align=center;fillColor=none;html=1;verticalAlign=middle;whiteSpace=wrap;rounded=0;fontStyle=1" parent="1" vertex="1">
          <mxGeometry x="267" y="40" width="60" height="30" as="geometry" />
        </mxCell>
        <mxCell id="Z4VkokxyRcRMqYuDKTM2-5" value="Module B" style="text;strokeColor=none;align=center;fillColor=none;html=1;verticalAlign=middle;whiteSpace=wrap;rounded=0;fontStyle=1" parent="1" vertex="1">
          <mxGeometry x="254" y="18" width="60" height="30" as="geometry" />
        </mxCell>
        <mxCell id="Z4VkokxyRcRMqYuDKTM2-6" value="Module C" style="text;strokeColor=none;align=center;fillColor=none;html=1;verticalAlign=middle;whiteSpace=wrap;rounded=0;fontStyle=1" parent="1" vertex="1">
          <mxGeometry x="240" y="-4" width="60" height="30" as="geometry" />
        </mxCell>
        <mxCell id="PfZy2kw3USagzh-RdwVe-4" style="edgeStyle=orthogonalEdgeStyle;rounded=0;orthogonalLoop=1;jettySize=auto;html=1;exitX=1;exitY=0.5;exitDx=0;exitDy=0;" parent="1" source="PfZy2kw3USagzh-RdwVe-1" target="PfZy2kw3USagzh-RdwVe-2" edge="1">
          <mxGeometry relative="1" as="geometry" />
        </mxCell>
        <mxCell id="PfZy2kw3USagzh-RdwVe-1" value="Configure" style="rounded=1;whiteSpace=wrap;html=1;strokeWidth=2;" parent="1" vertex="1">
          <mxGeometry x="380" y="120" width="80" height="60" as="geometry" />
        </mxCell>
        <mxCell id="PfZy2kw3USagzh-RdwVe-2" value="Design representation" style="rounded=1;whiteSpace=wrap;html=1;arcSize=0;" parent="1" vertex="1">
          <mxGeometry x="490" y="120" width="90" height="60" as="geometry" />
        </mxCell>
      </root>
    </mxGraphModel>
  </diagram>
  <diagram id="n8waiOgV3sGYRA2qFpI3" name="DFT">
    <mxGraphModel dx="968" dy="1180" grid="1" gridSize="10" guides="1" tooltips="1" connect="1" arrows="1" fold="1" page="1" pageScale="1" pageWidth="827" pageHeight="1169" math="0" shadow="0">
      <root>
        <mxCell id="0" />
        <mxCell id="1" parent="0" />
        <mxCell id="MOwKaSTvNnvU9aCQNDsC-2" value="DFT insertion" style="rounded=1;whiteSpace=wrap;html=1;strokeWidth=2;" parent="1" vertex="1">
          <mxGeometry x="440" y="310" width="80" height="60" as="geometry" />
        </mxCell>
        <mxCell id="R_bGWo1IctHO77o3UZKh-1" style="edgeStyle=orthogonalEdgeStyle;rounded=0;orthogonalLoop=1;jettySize=auto;html=1;exitX=1;exitY=0.5;exitDx=0;exitDy=0;entryX=0;entryY=0.5;entryDx=0;entryDy=0;" parent="1" source="MOwKaSTvNnvU9aCQNDsC-3" target="MOwKaSTvNnvU9aCQNDsC-2" edge="1">
          <mxGeometry relative="1" as="geometry" />
        </mxCell>
        <mxCell id="MOwKaSTvNnvU9aCQNDsC-3" value="Design representation" style="rounded=1;whiteSpace=wrap;html=1;arcSize=0;" parent="1" vertex="1">
          <mxGeometry x="310" y="310" width="90" height="60" as="geometry" />
        </mxCell>
      </root>
    </mxGraphModel>
  </diagram>
  <diagram name="Verif" id="YTs5L5ShLKBmyGkys1MM">
    <mxGraphModel dx="968" dy="2352" grid="1" gridSize="10" guides="1" tooltips="1" connect="1" arrows="1" fold="1" page="1" pageScale="1" pageWidth="827" pageHeight="1169" math="0" shadow="0">
      <root>
        <mxCell id="HUFgmtWyVbxiF6egx3v9-0" />
        <mxCell id="HUFgmtWyVbxiF6egx3v9-1" parent="HUFgmtWyVbxiF6egx3v9-0" />
        <mxCell id="HUFgmtWyVbxiF6egx3v9-2" value="" style="rounded=1;whiteSpace=wrap;html=1;arcSize=2;" vertex="1" parent="HUFgmtWyVbxiF6egx3v9-1">
          <mxGeometry x="60" y="-4" width="250" height="220" as="geometry" />
        </mxCell>
        <mxCell id="HUFgmtWyVbxiF6egx3v9-3" value="" style="rounded=1;whiteSpace=wrap;html=1;arcSize=2;" vertex="1" parent="HUFgmtWyVbxiF6egx3v9-1">
          <mxGeometry x="74" y="18" width="246" height="220" as="geometry" />
        </mxCell>
        <mxCell id="HUFgmtWyVbxiF6egx3v9-4" value="" style="rounded=1;whiteSpace=wrap;html=1;arcSize=2;" vertex="1" parent="HUFgmtWyVbxiF6egx3v9-1">
          <mxGeometry x="87" y="40" width="243" height="220" as="geometry" />
        </mxCell>
        <mxCell id="HUFgmtWyVbxiF6egx3v9-5" style="edgeStyle=orthogonalEdgeStyle;rounded=0;orthogonalLoop=1;jettySize=auto;html=1;exitX=1;exitY=0.5;exitDx=0;exitDy=0;entryX=0;entryY=0.75;entryDx=0;entryDy=0;" edge="1" parent="HUFgmtWyVbxiF6egx3v9-1" source="HUFgmtWyVbxiF6egx3v9-6" target="HUFgmtWyVbxiF6egx3v9-17">
          <mxGeometry relative="1" as="geometry">
            <mxPoint x="360" y="165" as="targetPoint" />
          </mxGeometry>
        </mxCell>
        <mxCell id="HUFgmtWyVbxiF6egx3v9-6" value="RTL&amp;nbsp; generation" style="rounded=1;whiteSpace=wrap;html=1;strokeWidth=2;" vertex="1" parent="HUFgmtWyVbxiF6egx3v9-1">
          <mxGeometry x="240" y="190" width="80" height="60" as="geometry" />
        </mxCell>
        <mxCell id="HUFgmtWyVbxiF6egx3v9-7" style="edgeStyle=orthogonalEdgeStyle;rounded=0;orthogonalLoop=1;jettySize=auto;html=1;exitX=1;exitY=0.5;exitDx=0;exitDy=0;entryX=0;entryY=0.5;entryDx=0;entryDy=0;" edge="1" parent="HUFgmtWyVbxiF6egx3v9-1" source="HUFgmtWyVbxiF6egx3v9-8" target="HUFgmtWyVbxiF6egx3v9-6">
          <mxGeometry relative="1" as="geometry" />
        </mxCell>
        <mxCell id="HUFgmtWyVbxiF6egx3v9-8" value="RTL generators and template sources" style="rounded=0;whiteSpace=wrap;html=1;" vertex="1" parent="HUFgmtWyVbxiF6egx3v9-1">
          <mxGeometry x="95" y="190" width="115" height="60" as="geometry" />
        </mxCell>
        <mxCell id="HUFgmtWyVbxiF6egx3v9-9" style="edgeStyle=orthogonalEdgeStyle;rounded=0;orthogonalLoop=1;jettySize=auto;html=1;exitX=1;exitY=0.5;exitDx=0;exitDy=0;entryX=0;entryY=0.5;entryDx=0;entryDy=0;" edge="1" parent="HUFgmtWyVbxiF6egx3v9-1" source="HUFgmtWyVbxiF6egx3v9-10" target="HUFgmtWyVbxiF6egx3v9-17">
          <mxGeometry relative="1" as="geometry">
            <mxPoint x="360" y="150" as="targetPoint" />
          </mxGeometry>
        </mxCell>
        <mxCell id="HUFgmtWyVbxiF6egx3v9-10" value="RTL sources,&amp;nbsp; models or stubs" style="rounded=0;whiteSpace=wrap;html=1;" vertex="1" parent="HUFgmtWyVbxiF6egx3v9-1">
          <mxGeometry x="95" y="120" width="115" height="60" as="geometry" />
        </mxCell>
        <mxCell id="HUFgmtWyVbxiF6egx3v9-11" style="edgeStyle=orthogonalEdgeStyle;rounded=0;orthogonalLoop=1;jettySize=auto;html=1;exitX=1;exitY=0.5;exitDx=0;exitDy=0;entryX=0;entryY=0.25;entryDx=0;entryDy=0;" edge="1" parent="HUFgmtWyVbxiF6egx3v9-1" source="HUFgmtWyVbxiF6egx3v9-12" target="HUFgmtWyVbxiF6egx3v9-17">
          <mxGeometry relative="1" as="geometry">
            <mxPoint x="360" y="135" as="targetPoint" />
          </mxGeometry>
        </mxCell>
        <mxCell id="HUFgmtWyVbxiF6egx3v9-12" value="Configuration&lt;br&gt;Defines&lt;br&gt;Libraries" style="rounded=0;whiteSpace=wrap;html=1;" vertex="1" parent="HUFgmtWyVbxiF6egx3v9-1">
          <mxGeometry x="95" y="50" width="115" height="60" as="geometry" />
        </mxCell>
        <mxCell id="HUFgmtWyVbxiF6egx3v9-13" value="Module A" style="text;strokeColor=none;align=center;fillColor=none;html=1;verticalAlign=middle;whiteSpace=wrap;rounded=0;fontStyle=1" vertex="1" parent="HUFgmtWyVbxiF6egx3v9-1">
          <mxGeometry x="267" y="40" width="60" height="30" as="geometry" />
        </mxCell>
        <mxCell id="HUFgmtWyVbxiF6egx3v9-14" value="Module B" style="text;strokeColor=none;align=center;fillColor=none;html=1;verticalAlign=middle;whiteSpace=wrap;rounded=0;fontStyle=1" vertex="1" parent="HUFgmtWyVbxiF6egx3v9-1">
          <mxGeometry x="254" y="18" width="60" height="30" as="geometry" />
        </mxCell>
        <mxCell id="HUFgmtWyVbxiF6egx3v9-15" value="Module C" style="text;strokeColor=none;align=center;fillColor=none;html=1;verticalAlign=middle;whiteSpace=wrap;rounded=0;fontStyle=1" vertex="1" parent="HUFgmtWyVbxiF6egx3v9-1">
          <mxGeometry x="240" y="-4" width="60" height="30" as="geometry" />
        </mxCell>
        <mxCell id="HUFgmtWyVbxiF6egx3v9-16" style="edgeStyle=orthogonalEdgeStyle;rounded=0;orthogonalLoop=1;jettySize=auto;html=1;exitX=1;exitY=0.5;exitDx=0;exitDy=0;" edge="1" parent="HUFgmtWyVbxiF6egx3v9-1" source="HUFgmtWyVbxiF6egx3v9-17" target="HUFgmtWyVbxiF6egx3v9-18">
          <mxGeometry relative="1" as="geometry" />
        </mxCell>
        <mxCell id="HUFgmtWyVbxiF6egx3v9-17" value="Configure" style="rounded=1;whiteSpace=wrap;html=1;strokeWidth=2;" vertex="1" parent="HUFgmtWyVbxiF6egx3v9-1">
          <mxGeometry x="380" y="120" width="80" height="60" as="geometry" />
        </mxCell>
        <mxCell id="HUFgmtWyVbxiF6egx3v9-18" value="Verification representation" style="rounded=1;whiteSpace=wrap;html=1;arcSize=0;" vertex="1" parent="HUFgmtWyVbxiF6egx3v9-1">
          <mxGeometry x="490" y="120" width="90" height="60" as="geometry" />
        </mxCell>
        <mxCell id="HUFgmtWyVbxiF6egx3v9-19" value="" style="rounded=1;whiteSpace=wrap;html=1;arcSize=2;" vertex="1" parent="HUFgmtWyVbxiF6egx3v9-1">
          <mxGeometry x="60" y="280" width="250" height="220" as="geometry" />
        </mxCell>
        <mxCell id="HUFgmtWyVbxiF6egx3v9-20" value="" style="rounded=1;whiteSpace=wrap;html=1;arcSize=2;" vertex="1" parent="HUFgmtWyVbxiF6egx3v9-1">
          <mxGeometry x="74" y="302" width="246" height="220" as="geometry" />
        </mxCell>
        <mxCell id="HUFgmtWyVbxiF6egx3v9-21" value="" style="rounded=1;whiteSpace=wrap;html=1;arcSize=2;" vertex="1" parent="HUFgmtWyVbxiF6egx3v9-1">
          <mxGeometry x="87" y="324" width="243" height="220" as="geometry" />
        </mxCell>
        <mxCell id="HUFgmtWyVbxiF6egx3v9-22" style="edgeStyle=orthogonalEdgeStyle;rounded=0;orthogonalLoop=1;jettySize=auto;html=1;exitX=1;exitY=0.5;exitDx=0;exitDy=0;entryX=0.75;entryY=1;entryDx=0;entryDy=0;" edge="1" parent="HUFgmtWyVbxiF6egx3v9-1" source="HUFgmtWyVbxiF6egx3v9-23" target="HUFgmtWyVbxiF6egx3v9-17">
          <mxGeometry relative="1" as="geometry">
            <mxPoint x="380" y="449" as="targetPoint" />
          </mxGeometry>
        </mxCell>
        <mxCell id="HUFgmtWyVbxiF6egx3v9-23" value="Code generation" style="rounded=1;whiteSpace=wrap;html=1;strokeWidth=2;" vertex="1" parent="HUFgmtWyVbxiF6egx3v9-1">
          <mxGeometry x="240" y="474" width="80" height="60" as="geometry" />
        </mxCell>
        <mxCell id="HUFgmtWyVbxiF6egx3v9-24" style="edgeStyle=orthogonalEdgeStyle;rounded=0;orthogonalLoop=1;jettySize=auto;html=1;exitX=1;exitY=0.5;exitDx=0;exitDy=0;entryX=0;entryY=0.5;entryDx=0;entryDy=0;" edge="1" parent="HUFgmtWyVbxiF6egx3v9-1" source="HUFgmtWyVbxiF6egx3v9-25" target="HUFgmtWyVbxiF6egx3v9-23">
          <mxGeometry relative="1" as="geometry" />
        </mxCell>
        <mxCell id="HUFgmtWyVbxiF6egx3v9-25" value="Generators and templates" style="rounded=0;whiteSpace=wrap;html=1;" vertex="1" parent="HUFgmtWyVbxiF6egx3v9-1">
          <mxGeometry x="95" y="474" width="115" height="60" as="geometry" />
        </mxCell>
        <mxCell id="HUFgmtWyVbxiF6egx3v9-26" style="edgeStyle=orthogonalEdgeStyle;rounded=0;orthogonalLoop=1;jettySize=auto;html=1;exitX=1;exitY=0.5;exitDx=0;exitDy=0;entryX=0.5;entryY=1;entryDx=0;entryDy=0;" edge="1" parent="HUFgmtWyVbxiF6egx3v9-1" source="HUFgmtWyVbxiF6egx3v9-27" target="HUFgmtWyVbxiF6egx3v9-17">
          <mxGeometry relative="1" as="geometry" />
        </mxCell>
        <mxCell id="HUFgmtWyVbxiF6egx3v9-27" value="TB sources" style="rounded=0;whiteSpace=wrap;html=1;" vertex="1" parent="HUFgmtWyVbxiF6egx3v9-1">
          <mxGeometry x="95" y="404" width="115" height="60" as="geometry" />
        </mxCell>
        <mxCell id="HUFgmtWyVbxiF6egx3v9-28" style="edgeStyle=orthogonalEdgeStyle;rounded=0;orthogonalLoop=1;jettySize=auto;html=1;exitX=1;exitY=0.5;exitDx=0;exitDy=0;entryX=0.25;entryY=1;entryDx=0;entryDy=0;" edge="1" parent="HUFgmtWyVbxiF6egx3v9-1" source="HUFgmtWyVbxiF6egx3v9-29" target="HUFgmtWyVbxiF6egx3v9-17">
          <mxGeometry relative="1" as="geometry" />
        </mxCell>
        <mxCell id="HUFgmtWyVbxiF6egx3v9-29" value="Configuration&lt;br&gt;Defines&lt;br&gt;Libraries" style="rounded=0;whiteSpace=wrap;html=1;" vertex="1" parent="HUFgmtWyVbxiF6egx3v9-1">
          <mxGeometry x="95" y="334" width="115" height="60" as="geometry" />
        </mxCell>
        <mxCell id="HUFgmtWyVbxiF6egx3v9-30" value="Module A" style="text;strokeColor=none;align=center;fillColor=none;html=1;verticalAlign=middle;whiteSpace=wrap;rounded=0;fontStyle=1" vertex="1" parent="HUFgmtWyVbxiF6egx3v9-1">
          <mxGeometry x="267" y="324" width="60" height="30" as="geometry" />
        </mxCell>
        <mxCell id="HUFgmtWyVbxiF6egx3v9-31" value="Module B" style="text;strokeColor=none;align=center;fillColor=none;html=1;verticalAlign=middle;whiteSpace=wrap;rounded=0;fontStyle=1" vertex="1" parent="HUFgmtWyVbxiF6egx3v9-1">
          <mxGeometry x="254" y="302" width="60" height="30" as="geometry" />
        </mxCell>
        <mxCell id="HUFgmtWyVbxiF6egx3v9-32" value="Module C" style="text;strokeColor=none;align=center;fillColor=none;html=1;verticalAlign=middle;whiteSpace=wrap;rounded=0;fontStyle=1" vertex="1" parent="HUFgmtWyVbxiF6egx3v9-1">
          <mxGeometry x="240" y="280" width="60" height="30" as="geometry" />
        </mxCell>
      </root>
    </mxGraphModel>
  </diagram>
  <diagram id="UKBPgyEUx9z6I8RMuNF_" name="Lint">
    <mxGraphModel dx="968" dy="1183" grid="1" gridSize="10" guides="1" tooltips="1" connect="1" arrows="1" fold="1" page="1" pageScale="1" pageWidth="827" pageHeight="1169" math="0" shadow="0">
      <root>
        <mxCell id="0" />
        <mxCell id="1" parent="0" />
        <mxCell id="xOR_3Htnd0OdOqM46-nr-3" style="edgeStyle=orthogonalEdgeStyle;rounded=0;orthogonalLoop=1;jettySize=auto;html=1;exitX=1;exitY=0.5;exitDx=0;exitDy=0;" parent="1" source="S7Mij1xXWcj3-4IpG78J-1" target="xOR_3Htnd0OdOqM46-nr-1" edge="1">
          <mxGeometry relative="1" as="geometry" />
        </mxCell>
        <mxCell id="S7Mij1xXWcj3-4IpG78J-1" value="Design representation" style="rounded=1;whiteSpace=wrap;html=1;arcSize=0;" parent="1" vertex="1">
          <mxGeometry x="160" y="150" width="90" height="60" as="geometry" />
        </mxCell>
        <mxCell id="xOR_3Htnd0OdOqM46-nr-4" style="edgeStyle=orthogonalEdgeStyle;rounded=0;orthogonalLoop=1;jettySize=auto;html=1;exitX=1;exitY=0.5;exitDx=0;exitDy=0;entryX=0;entryY=0.5;entryDx=0;entryDy=0;" parent="1" source="xOR_3Htnd0OdOqM46-nr-1" target="xOR_3Htnd0OdOqM46-nr-2" edge="1">
          <mxGeometry relative="1" as="geometry" />
        </mxCell>
        <mxCell id="xOR_3Htnd0OdOqM46-nr-1" value="Lint check" style="rounded=1;whiteSpace=wrap;html=1;strokeWidth=2;" parent="1" vertex="1">
          <mxGeometry x="290" y="150" width="80" height="60" as="geometry" />
        </mxCell>
        <mxCell id="xOR_3Htnd0OdOqM46-nr-2" value="Messages" style="rounded=1;whiteSpace=wrap;html=1;arcSize=0;" parent="1" vertex="1">
          <mxGeometry x="400" y="165" width="90" height="30" as="geometry" />
        </mxCell>
      </root>
    </mxGraphModel>
  </diagram>
  <diagram id="UkN8w8ObjLFK9VSbSAsk" name="CDC">
    <mxGraphModel dx="968" dy="1183" grid="1" gridSize="10" guides="1" tooltips="1" connect="1" arrows="1" fold="1" page="1" pageScale="1" pageWidth="827" pageHeight="1169" math="0" shadow="0">
      <root>
        <mxCell id="0" />
        <mxCell id="1" parent="0" />
        <mxCell id="nKgrQlH8aPRf_Liyrpg4-1" style="edgeStyle=orthogonalEdgeStyle;rounded=0;orthogonalLoop=1;jettySize=auto;html=1;exitX=1;exitY=0.5;exitDx=0;exitDy=0;" edge="1" parent="1" source="nKgrQlH8aPRf_Liyrpg4-2" target="nKgrQlH8aPRf_Liyrpg4-4">
          <mxGeometry relative="1" as="geometry" />
        </mxCell>
        <mxCell id="nKgrQlH8aPRf_Liyrpg4-2" value="Design representation" style="rounded=1;whiteSpace=wrap;html=1;arcSize=0;" vertex="1" parent="1">
          <mxGeometry x="160" y="280" width="90" height="60" as="geometry" />
        </mxCell>
        <mxCell id="nKgrQlH8aPRf_Liyrpg4-3" style="edgeStyle=orthogonalEdgeStyle;rounded=0;orthogonalLoop=1;jettySize=auto;html=1;exitX=1;exitY=0.5;exitDx=0;exitDy=0;entryX=0;entryY=0.5;entryDx=0;entryDy=0;" edge="1" parent="1" source="nKgrQlH8aPRf_Liyrpg4-4" target="nKgrQlH8aPRf_Liyrpg4-5">
          <mxGeometry relative="1" as="geometry" />
        </mxCell>
        <mxCell id="nKgrQlH8aPRf_Liyrpg4-4" value="CDC/RDC check" style="rounded=1;whiteSpace=wrap;html=1;strokeWidth=2;" vertex="1" parent="1">
          <mxGeometry x="290" y="280" width="80" height="60" as="geometry" />
        </mxCell>
        <mxCell id="nKgrQlH8aPRf_Liyrpg4-5" value="Messages" style="rounded=1;whiteSpace=wrap;html=1;arcSize=0;" vertex="1" parent="1">
          <mxGeometry x="400" y="295" width="90" height="30" as="geometry" />
        </mxCell>
      </root>
    </mxGraphModel>
  </diagram>
  <diagram id="2v27ZiuWAX9PAVK80M9K" name="Formal">
    <mxGraphModel dx="968" dy="1180" grid="1" gridSize="10" guides="1" tooltips="1" connect="1" arrows="1" fold="1" page="1" pageScale="1" pageWidth="827" pageHeight="1169" math="0" shadow="0">
      <root>
        <mxCell id="0" />
        <mxCell id="1" parent="0" />
        <mxCell id="7xuDcD88LjyVAfZ-qE1Q-4" value="Formal property check" style="rounded=1;whiteSpace=wrap;html=1;strokeWidth=2;" parent="1" vertex="1">
          <mxGeometry x="300" y="300" width="80" height="60" as="geometry" />
        </mxCell>
        <mxCell id="1VQ50KIGIqYbHMcLRoZb-1" style="edgeStyle=orthogonalEdgeStyle;rounded=0;orthogonalLoop=1;jettySize=auto;html=1;exitX=1;exitY=0.5;exitDx=0;exitDy=0;entryX=0;entryY=0.25;entryDx=0;entryDy=0;" edge="1" parent="1" source="jH71ouVLhZKUc96eJFPM-1" target="7xuDcD88LjyVAfZ-qE1Q-4">
          <mxGeometry relative="1" as="geometry" />
        </mxCell>
        <mxCell id="jH71ouVLhZKUc96eJFPM-1" value="Verification representation" style="rounded=1;whiteSpace=wrap;html=1;arcSize=0;" parent="1" vertex="1">
          <mxGeometry x="160" y="280" width="90" height="40" as="geometry" />
        </mxCell>
        <mxCell id="KMLCQzAyMYXwG7j8XHvO-3" style="edgeStyle=orthogonalEdgeStyle;rounded=0;orthogonalLoop=1;jettySize=auto;html=1;exitX=1;exitY=0.5;exitDx=0;exitDy=0;entryX=0;entryY=0.75;entryDx=0;entryDy=0;" edge="1" parent="1" source="KMLCQzAyMYXwG7j8XHvO-1" target="7xuDcD88LjyVAfZ-qE1Q-4">
          <mxGeometry relative="1" as="geometry" />
        </mxCell>
        <mxCell id="KMLCQzAyMYXwG7j8XHvO-1" value="Properties" style="rounded=1;whiteSpace=wrap;html=1;arcSize=0;" vertex="1" parent="1">
          <mxGeometry x="160" y="340" width="90" height="40" as="geometry" />
        </mxCell>
      </root>
    </mxGraphModel>
  </diagram>
  <diagram id="ZHJJvEiGn85X7VlKdywU" name="Simulation">
    <mxGraphModel dx="968" dy="1180" grid="1" gridSize="10" guides="1" tooltips="1" connect="1" arrows="1" fold="1" page="1" pageScale="1" pageWidth="827" pageHeight="1169" math="0" shadow="0">
      <root>
        <mxCell id="0" />
        <mxCell id="1" parent="0" />
        <mxCell id="UyRI-LVGRLTtrUxnm_EW-9" value="" style="rounded=1;whiteSpace=wrap;html=1;arcSize=6;" vertex="1" parent="1">
          <mxGeometry x="280" y="380" width="200" height="130" as="geometry" />
        </mxCell>
        <mxCell id="UyRI-LVGRLTtrUxnm_EW-6" value="" style="rounded=1;whiteSpace=wrap;html=1;arcSize=6;" vertex="1" parent="1">
          <mxGeometry x="290" y="390" width="200" height="130" as="geometry" />
        </mxCell>
        <mxCell id="UyRI-LVGRLTtrUxnm_EW-4" value="" style="rounded=1;whiteSpace=wrap;html=1;arcSize=6;" vertex="1" parent="1">
          <mxGeometry x="300" y="400" width="200" height="130" as="geometry" />
        </mxCell>
        <mxCell id="UyRI-LVGRLTtrUxnm_EW-17" style="edgeStyle=orthogonalEdgeStyle;rounded=0;orthogonalLoop=1;jettySize=auto;html=1;exitX=1;exitY=0.5;exitDx=0;exitDy=0;entryX=0;entryY=0.5;entryDx=0;entryDy=0;" edge="1" parent="1" source="dOuq_5Qqy4L8zi6nhhlq-3" target="UyRI-LVGRLTtrUxnm_EW-13">
          <mxGeometry relative="1" as="geometry" />
        </mxCell>
        <mxCell id="UyRI-LVGRLTtrUxnm_EW-18" style="edgeStyle=orthogonalEdgeStyle;rounded=0;orthogonalLoop=1;jettySize=auto;html=1;exitX=1;exitY=0.25;exitDx=0;exitDy=0;entryX=0;entryY=0.25;entryDx=0;entryDy=0;" edge="1" parent="1" source="dOuq_5Qqy4L8zi6nhhlq-3" target="UyRI-LVGRLTtrUxnm_EW-11">
          <mxGeometry relative="1" as="geometry" />
        </mxCell>
        <mxCell id="dOuq_5Qqy4L8zi6nhhlq-3" value="Simulation (including coverage)" style="rounded=1;whiteSpace=wrap;html=1;strokeWidth=2;" parent="1" vertex="1">
          <mxGeometry x="400" y="410" width="80" height="60" as="geometry" />
        </mxCell>
        <mxCell id="UyRI-LVGRLTtrUxnm_EW-8" style="edgeStyle=orthogonalEdgeStyle;rounded=0;orthogonalLoop=1;jettySize=auto;html=1;exitX=1;exitY=0.5;exitDx=0;exitDy=0;entryX=0;entryY=0.5;entryDx=0;entryDy=0;" edge="1" parent="1" source="dOuq_5Qqy4L8zi6nhhlq-5" target="dOuq_5Qqy4L8zi6nhhlq-3">
          <mxGeometry relative="1" as="geometry" />
        </mxCell>
        <mxCell id="dOuq_5Qqy4L8zi6nhhlq-5" value="Verification representation" style="rounded=1;whiteSpace=wrap;html=1;arcSize=0;" parent="1" vertex="1">
          <mxGeometry x="160" y="420" width="90" height="40" as="geometry" />
        </mxCell>
        <mxCell id="UyRI-LVGRLTtrUxnm_EW-10" style="edgeStyle=orthogonalEdgeStyle;rounded=0;orthogonalLoop=1;jettySize=auto;html=1;exitX=1;exitY=0.5;exitDx=0;exitDy=0;entryX=0;entryY=0.5;entryDx=0;entryDy=0;" edge="1" parent="1" source="mfsCKpoQ8q_4i1Csi5Wa-1" target="UyRI-LVGRLTtrUxnm_EW-1">
          <mxGeometry relative="1" as="geometry" />
        </mxCell>
        <mxCell id="mfsCKpoQ8q_4i1Csi5Wa-1" value="Testbench stimulus" style="rounded=1;whiteSpace=wrap;html=1;arcSize=0;" parent="1" vertex="1">
          <mxGeometry x="160" y="480" width="90" height="40" as="geometry" />
        </mxCell>
        <mxCell id="UyRI-LVGRLTtrUxnm_EW-3" style="edgeStyle=orthogonalEdgeStyle;rounded=0;orthogonalLoop=1;jettySize=auto;html=1;exitX=1;exitY=0.5;exitDx=0;exitDy=0;entryX=0.5;entryY=1;entryDx=0;entryDy=0;" edge="1" parent="1" source="UyRI-LVGRLTtrUxnm_EW-1" target="dOuq_5Qqy4L8zi6nhhlq-3">
          <mxGeometry relative="1" as="geometry" />
        </mxCell>
        <mxCell id="UyRI-LVGRLTtrUxnm_EW-1" value="Test generation" style="rounded=1;whiteSpace=wrap;html=1;strokeWidth=2;" vertex="1" parent="1">
          <mxGeometry x="320" y="480" width="80" height="40" as="geometry" />
        </mxCell>
        <mxCell id="UyRI-LVGRLTtrUxnm_EW-15" style="edgeStyle=orthogonalEdgeStyle;rounded=0;orthogonalLoop=1;jettySize=auto;html=1;exitX=0.5;exitY=1;exitDx=0;exitDy=0;entryX=0.5;entryY=0;entryDx=0;entryDy=0;" edge="1" parent="1" source="UyRI-LVGRLTtrUxnm_EW-11" target="UyRI-LVGRLTtrUxnm_EW-13">
          <mxGeometry relative="1" as="geometry" />
        </mxCell>
        <mxCell id="UyRI-LVGRLTtrUxnm_EW-11" value="Coverage merging" style="rounded=1;whiteSpace=wrap;html=1;strokeWidth=2;" vertex="1" parent="1">
          <mxGeometry x="550" y="415" width="80" height="40" as="geometry" />
        </mxCell>
        <mxCell id="UyRI-LVGRLTtrUxnm_EW-20" style="edgeStyle=orthogonalEdgeStyle;rounded=0;orthogonalLoop=1;jettySize=auto;html=1;exitX=1;exitY=0.5;exitDx=0;exitDy=0;" edge="1" parent="1" source="UyRI-LVGRLTtrUxnm_EW-13" target="UyRI-LVGRLTtrUxnm_EW-19">
          <mxGeometry relative="1" as="geometry" />
        </mxCell>
        <mxCell id="UyRI-LVGRLTtrUxnm_EW-13" value="Reporting" style="rounded=1;whiteSpace=wrap;html=1;strokeWidth=2;" vertex="1" parent="1">
          <mxGeometry x="550" y="480" width="80" height="40" as="geometry" />
        </mxCell>
        <mxCell id="UyRI-LVGRLTtrUxnm_EW-19" value="Reports" style="rounded=1;whiteSpace=wrap;html=1;arcSize=0;" vertex="1" parent="1">
          <mxGeometry x="660" y="480" width="90" height="40" as="geometry" />
        </mxCell>
        <mxCell id="UyRI-LVGRLTtrUxnm_EW-21" value="Random test instances" style="text;strokeColor=none;align=center;fillColor=none;html=1;verticalAlign=middle;whiteSpace=wrap;rounded=0;" vertex="1" parent="1">
          <mxGeometry x="312" y="350" width="136" height="30" as="geometry" />
        </mxCell>
      </root>
    </mxGraphModel>
  </diagram>
  <diagram id="rZ_puBguz8v3ogWsLN8l" name="Equiv">
    <mxGraphModel dx="968" dy="1183" grid="1" gridSize="10" guides="1" tooltips="1" connect="1" arrows="1" fold="1" page="1" pageScale="1" pageWidth="827" pageHeight="1169" math="0" shadow="0">
      <root>
        <mxCell id="0" />
        <mxCell id="1" parent="0" />
        <mxCell id="jk1Pa74M1XSe0s-mHk3D-1" style="edgeStyle=orthogonalEdgeStyle;rounded=0;orthogonalLoop=1;jettySize=auto;html=1;exitX=1;exitY=0.5;exitDx=0;exitDy=0;entryX=0;entryY=0.25;entryDx=0;entryDy=0;" edge="1" parent="1" source="jk1Pa74M1XSe0s-mHk3D-2" target="jk1Pa74M1XSe0s-mHk3D-3">
          <mxGeometry relative="1" as="geometry" />
        </mxCell>
        <mxCell id="jk1Pa74M1XSe0s-mHk3D-2" value="Design representation A&lt;br&gt;(reference)" style="rounded=1;whiteSpace=wrap;html=1;arcSize=0;" vertex="1" parent="1">
          <mxGeometry x="150" y="350" width="100" height="50" as="geometry" />
        </mxCell>
        <mxCell id="jk1Pa74M1XSe0s-mHk3D-3" value="Equivalence check" style="rounded=1;whiteSpace=wrap;html=1;strokeWidth=2;" vertex="1" parent="1">
          <mxGeometry x="300" y="380" width="80" height="60" as="geometry" />
        </mxCell>
        <mxCell id="jk1Pa74M1XSe0s-mHk3D-4" style="edgeStyle=orthogonalEdgeStyle;rounded=0;orthogonalLoop=1;jettySize=auto;html=1;exitX=1;exitY=0.5;exitDx=0;exitDy=0;entryX=0;entryY=0.75;entryDx=0;entryDy=0;" edge="1" parent="1" source="jk1Pa74M1XSe0s-mHk3D-5" target="jk1Pa74M1XSe0s-mHk3D-3">
          <mxGeometry relative="1" as="geometry" />
        </mxCell>
        <mxCell id="jk1Pa74M1XSe0s-mHk3D-5" value="Design representation B&lt;br&gt;(implementation)" style="rounded=1;whiteSpace=wrap;html=1;arcSize=0;" vertex="1" parent="1">
          <mxGeometry x="150" y="420" width="100" height="50" as="geometry" />
        </mxCell>
      </root>
    </mxGraphModel>
  </diagram>
  <diagram id="-PCNdr78gZ7H_3ELHpQI" name="Phys">
    <mxGraphModel dx="968" dy="1180" grid="1" gridSize="10" guides="1" tooltips="1" connect="1" arrows="1" fold="1" page="1" pageScale="1" pageWidth="827" pageHeight="1169" math="0" shadow="0">
      <root>
        <mxCell id="0" />
        <mxCell id="1" parent="0" />
        <mxCell id="78ZRKS5Qa-ep5gOW2kOd-1" style="edgeStyle=orthogonalEdgeStyle;rounded=0;orthogonalLoop=1;jettySize=auto;html=1;exitX=1;exitY=0.5;exitDx=0;exitDy=0;" parent="1" source="78ZRKS5Qa-ep5gOW2kOd-2" target="78ZRKS5Qa-ep5gOW2kOd-4" edge="1">
          <mxGeometry relative="1" as="geometry" />
        </mxCell>
        <mxCell id="78ZRKS5Qa-ep5gOW2kOd-2" value="Design representation" style="rounded=1;whiteSpace=wrap;html=1;arcSize=0;" parent="1" vertex="1">
          <mxGeometry x="180" y="150" width="90" height="60" as="geometry" />
        </mxCell>
        <mxCell id="78ZRKS5Qa-ep5gOW2kOd-13" style="edgeStyle=orthogonalEdgeStyle;rounded=0;orthogonalLoop=1;jettySize=auto;html=1;exitX=1;exitY=0.5;exitDx=0;exitDy=0;entryX=0;entryY=0.5;entryDx=0;entryDy=0;" parent="1" source="78ZRKS5Qa-ep5gOW2kOd-4" target="78ZRKS5Qa-ep5gOW2kOd-11" edge="1">
          <mxGeometry relative="1" as="geometry" />
        </mxCell>
        <mxCell id="78ZRKS5Qa-ep5gOW2kOd-4" value="Synthesis" style="rounded=1;whiteSpace=wrap;html=1;strokeWidth=2;" parent="1" vertex="1">
          <mxGeometry x="290" y="150" width="80" height="60" as="geometry" />
        </mxCell>
        <mxCell id="78ZRKS5Qa-ep5gOW2kOd-15" style="edgeStyle=orthogonalEdgeStyle;rounded=0;orthogonalLoop=1;jettySize=auto;html=1;exitX=1;exitY=0.5;exitDx=0;exitDy=0;entryX=0;entryY=0.5;entryDx=0;entryDy=0;" parent="1" source="78ZRKS5Qa-ep5gOW2kOd-6" target="78ZRKS5Qa-ep5gOW2kOd-7" edge="1">
          <mxGeometry relative="1" as="geometry" />
        </mxCell>
        <mxCell id="78ZRKS5Qa-ep5gOW2kOd-6" value="Floorplanning" style="rounded=1;whiteSpace=wrap;html=1;strokeWidth=2;" parent="1" vertex="1">
          <mxGeometry x="490" y="150" width="80" height="60" as="geometry" />
        </mxCell>
        <mxCell id="78ZRKS5Qa-ep5gOW2kOd-16" style="edgeStyle=orthogonalEdgeStyle;rounded=0;orthogonalLoop=1;jettySize=auto;html=1;exitX=1;exitY=0.5;exitDx=0;exitDy=0;entryX=0;entryY=0.5;entryDx=0;entryDy=0;" parent="1" source="78ZRKS5Qa-ep5gOW2kOd-7" target="78ZRKS5Qa-ep5gOW2kOd-8" edge="1">
          <mxGeometry relative="1" as="geometry" />
        </mxCell>
        <mxCell id="78ZRKS5Qa-ep5gOW2kOd-7" value="Placement" style="rounded=1;whiteSpace=wrap;html=1;strokeWidth=2;" parent="1" vertex="1">
          <mxGeometry x="590" y="150" width="80" height="60" as="geometry" />
        </mxCell>
        <mxCell id="78ZRKS5Qa-ep5gOW2kOd-17" style="edgeStyle=orthogonalEdgeStyle;rounded=0;orthogonalLoop=1;jettySize=auto;html=1;exitX=1;exitY=0.5;exitDx=0;exitDy=0;entryX=0;entryY=0.5;entryDx=0;entryDy=0;" parent="1" source="78ZRKS5Qa-ep5gOW2kOd-8" target="78ZRKS5Qa-ep5gOW2kOd-9" edge="1">
          <mxGeometry relative="1" as="geometry" />
        </mxCell>
        <mxCell id="78ZRKS5Qa-ep5gOW2kOd-8" value="Clock tree synthesis" style="rounded=1;whiteSpace=wrap;html=1;strokeWidth=2;" parent="1" vertex="1">
          <mxGeometry x="690" y="150" width="80" height="60" as="geometry" />
        </mxCell>
        <mxCell id="78ZRKS5Qa-ep5gOW2kOd-18" style="edgeStyle=orthogonalEdgeStyle;rounded=0;orthogonalLoop=1;jettySize=auto;html=1;exitX=1;exitY=0.5;exitDx=0;exitDy=0;entryX=0;entryY=0.5;entryDx=0;entryDy=0;" parent="1" source="78ZRKS5Qa-ep5gOW2kOd-9" target="78ZRKS5Qa-ep5gOW2kOd-10" edge="1">
          <mxGeometry relative="1" as="geometry" />
        </mxCell>
        <mxCell id="78ZRKS5Qa-ep5gOW2kOd-9" value="Routing" style="rounded=1;whiteSpace=wrap;html=1;strokeWidth=2;" parent="1" vertex="1">
          <mxGeometry x="790" y="150" width="80" height="60" as="geometry" />
        </mxCell>
        <mxCell id="78ZRKS5Qa-ep5gOW2kOd-19" style="edgeStyle=orthogonalEdgeStyle;rounded=0;orthogonalLoop=1;jettySize=auto;html=1;exitX=1;exitY=0.5;exitDx=0;exitDy=0;entryX=0;entryY=0.5;entryDx=0;entryDy=0;" parent="1" source="78ZRKS5Qa-ep5gOW2kOd-10" target="78ZRKS5Qa-ep5gOW2kOd-12" edge="1">
          <mxGeometry relative="1" as="geometry" />
        </mxCell>
        <mxCell id="78ZRKS5Qa-ep5gOW2kOd-10" value="Finishing" style="rounded=1;whiteSpace=wrap;html=1;strokeWidth=2;" parent="1" vertex="1">
          <mxGeometry x="890" y="150" width="80" height="60" as="geometry" />
        </mxCell>
        <mxCell id="78ZRKS5Qa-ep5gOW2kOd-14" style="edgeStyle=orthogonalEdgeStyle;rounded=0;orthogonalLoop=1;jettySize=auto;html=1;exitX=1;exitY=0.5;exitDx=0;exitDy=0;" parent="1" source="78ZRKS5Qa-ep5gOW2kOd-11" target="78ZRKS5Qa-ep5gOW2kOd-6" edge="1">
          <mxGeometry relative="1" as="geometry" />
        </mxCell>
        <mxCell id="78ZRKS5Qa-ep5gOW2kOd-11" value="Scan&lt;br&gt;insertion" style="rounded=1;whiteSpace=wrap;html=1;strokeWidth=2;" parent="1" vertex="1">
          <mxGeometry x="390" y="150" width="80" height="60" as="geometry" />
        </mxCell>
        <mxCell id="78ZRKS5Qa-ep5gOW2kOd-12" value="GDSII" style="rounded=1;whiteSpace=wrap;html=1;arcSize=0;" parent="1" vertex="1">
          <mxGeometry x="990" y="150" width="90" height="60" as="geometry" />
        </mxCell>
      </root>
    </mxGraphModel>
  </diagram>
</mxfile>
